<?xml version="1.0" encoding="iso-8859-1"?>
<!-- Uploaded to: SVG Repo, www.svgrepo.com, Generator: SVG Repo Mixer Tools -->
<svg height="800px" width="800px" version="1.1" id="Layer_1" xmlns="http://www.w3.org/2000/svg" xmlns:xlink="http://www.w3.org/1999/xlink" 
	 viewBox="0 0 511.999 511.999" xml:space="preserve">
<path style="fill:#CCD8E5;" d="M503.665,66.8v316.343c0,17.909-14.509,32.429-32.417,32.429H40.754
	c-17.909,0-32.418-14.52-32.418-32.429V66.8c0-17.909,14.509-32.429,32.418-32.429h430.493
	C489.155,34.372,503.665,48.892,503.665,66.8z"/>
<path style="fill:#DFEAF4;" d="M503.665,66.8v316.343c0,17.909-14.509,32.429-32.417,32.429H183.344l23.752-57.925L339.655,34.372
	h131.592C489.155,34.372,503.665,48.892,503.665,66.8z"/>
<path style="fill:#B8E9F2;" d="M503.665,66.8v290.847H8.337V66.8c0-17.909,14.509-32.429,32.418-32.429h430.493
	C489.155,34.372,503.665,48.892,503.665,66.8z"/>
<path style="fill:#D4F7FC;" d="M503.665,66.8v290.847H207.097L339.655,34.372h131.592C489.155,34.372,503.665,48.892,503.665,66.8z"
	/>
<polygon style="fill:#CCD8E5;" points="343.454,480.173 168.547,480.173 181.034,450.956 196.165,415.572 315.836,415.572 
	330.967,450.956 "/>
<polygon style="fill:#BAC6D1;" points="330.967,450.956 181.034,450.956 196.165,415.572 315.836,415.572 "/>
<path style="fill:#F75757;" d="M371.44,80.572c-24.806-24.806-65.169-24.811-89.976-0.004l-57.844,57.844
	c-4.375,4.375-7.983,9.239-10.812,14.41l-4.627,50.463c3.005,9.185,8.152,17.822,15.438,25.107
	c7.287,7.287,15.913,12.433,25.103,15.433c16.561,5.428,34.92,3.886,50.463-4.627c5.17-2.827,10.035-6.436,14.41-10.811
	l57.844-57.844C396.247,145.737,396.247,105.378,371.44,80.572z M346.723,145.825l-42.904,42.904l-14.939,14.939
	c-4.76,4.76-10.796,7.494-17.02,8.201c-8.379,0.954-17.104-1.78-23.521-8.197c-6.417-6.417-9.15-15.142-8.201-23.525l23.14-31.96
	l42.904-42.904c11.177-11.177,29.365-11.173,40.541,0.004S357.9,134.648,346.723,145.825z"/>
<path style="fill:#E8C262;" d="M248.724,243.827l-42.905,42.905c-11.176,11.176-29.362,11.176-40.539,0
	c-11.176-11.176-11.176-29.362,0-40.55l42.905-42.894l14.931-14.942c4.766-4.766,10.798-7.499,17.02-8.199
	c8.388-0.955,17.12,1.778,23.53,8.199c6.421,6.41,9.154,15.142,8.188,23.519c6.232-0.7,12.265-3.433,17.031-8.199l14.931-14.931
	c-3-9.199-8.143-17.82-15.431-25.107c-7.288-7.288-15.92-12.432-25.107-15.442c-16.564-5.421-34.928-3.877-50.47,4.633
	c-5.166,2.833-10.032,6.432-14.398,10.81l-57.847,57.847c-24.808,24.796-24.808,65.168,0,89.976s65.168,24.796,89.976,0
	l57.847-57.847c4.366-4.366,7.966-9.232,10.798-14.398v-0.011C283.641,247.715,265.288,249.248,248.724,243.827z"/>
<path d="M297.454,77.194c3.917-2.413,5.138-7.546,2.724-11.464c-2.413-3.918-7.544-5.137-11.464-2.724
	c-4.747,2.925-9.17,6.421-13.141,10.393l-57.843,57.844c-4.276,4.276-7.976,9.042-11.026,14.193
	c-5.153,3.052-9.917,6.75-14.19,11.022l-57.844,57.844c-13.571,13.57-21.045,31.641-21.045,50.882
	c0,19.241,7.474,37.311,21.045,50.881c13.57,13.57,31.637,21.044,50.874,21.043c0.001,0,0.004,0,0.006,0
	c19.238-0.001,37.308-7.476,50.878-21.048l57.844-57.843c4.268-4.269,7.963-9.034,11.013-14.185
	c5.156-3.053,9.926-6.755,14.203-11.032l57.843-57.843c13.571-13.571,21.045-31.64,21.045-50.877s-7.474-37.307-21.045-50.877
	c-16.601-16.602-40.363-24.054-63.562-19.93c-4.53,0.805-7.551,5.131-6.746,9.662c0.807,4.53,5.125,7.554,9.662,6.746
	c17.84-3.172,36.107,2.551,48.861,15.307c10.424,10.424,16.165,24.308,16.165,39.094s-5.741,28.67-16.165,39.093l-57.843,57.843
	c-3.731,3.732-7.941,6.891-12.52,9.395c-13.351,7.313-29.34,8.777-43.875,4.014c-8.268-2.7-15.602-7.209-21.797-13.404
	c-4.996-4.996-8.879-10.753-11.624-17.139l11.125-11.125c1.068-1.069,2.24-1.986,3.481-2.777c1.5,6.778,4.897,13.053,9.952,18.108
	c6.998,6.997,16.325,10.826,26.091,10.825c1.413,0,2.837-0.08,4.263-0.242c8.281-0.941,16.084-4.7,21.972-10.588l57.843-57.844
	c14.423-14.425,14.423-37.896-0.001-52.319c-14.425-14.427-37.898-14.43-52.326-0.004l-39.454,39.454
	c-7.889-1.958-16.017-2.576-24.022-1.845l50.544-50.544C290.412,82.127,293.81,79.44,297.454,77.194z M249.086,187.816
	c3.242,0.939,6.23,2.685,8.691,5.145c2.461,2.461,4.205,5.448,5.143,8.69c-3.242-0.938-6.229-2.684-8.689-5.144
	C251.771,194.046,250.026,191.058,249.086,187.816z M312.072,109.9c7.931-7.927,20.83-7.923,28.759,0.004
	c7.928,7.927,7.928,20.826,0,28.752l-34.246,34.246c-3.258-5.999-7.368-11.504-12.308-16.445
	c-4.865-4.865-10.44-9.005-16.471-12.293L312.072,109.9z M260.685,154.831c8.282,2.711,15.62,7.222,21.808,13.411
	c5.002,5.001,8.883,10.755,11.622,17.132L282.989,196.5c-1.068,1.068-2.24,1.986-3.482,2.777
	c-1.498-6.775-4.893-13.047-9.947-18.102c-8.009-8.009-19.076-11.869-30.358-10.584c-8.279,0.934-16.082,4.694-21.972,10.584
	l-57.844,57.843c-6.98,6.979-10.824,16.271-10.824,26.165c0,9.894,3.844,19.186,10.824,26.165
	c6.978,6.979,16.268,10.821,26.157,10.821c0.002,0,0.004,0,0.007,0c9.891-0.001,19.182-3.846,26.161-10.826l25.927-25.927
	c3.254-3.254,3.254-8.53,0-11.783c-3.254-3.254-8.53-3.254-11.783,0l-25.927,25.927c-3.833,3.833-8.94,5.945-14.38,5.945
	c-0.001,0-0.002,0-0.003,0c-5.439,0-10.543-2.11-14.373-5.94c-3.832-3.833-5.942-8.94-5.942-14.381
	c0-5.441,2.111-10.55,5.942-14.381l34.248-34.248c3.262,6.005,7.372,11.513,12.312,16.452c8.067,8.067,17.624,13.941,28.399,17.46
	c7.303,2.394,14.891,3.576,22.458,3.576c2.203,0,4.405-0.102,6.597-0.302l-50.539,50.538
	c-10.424,10.424-24.309,16.165-39.097,16.167s-28.673-5.739-39.095-16.162c-10.424-10.424-16.164-24.309-16.164-39.099
	s5.74-28.675,16.164-39.099l57.843-57.844c3.727-3.727,7.938-6.886,12.516-9.39C230.165,151.54,246.158,150.074,260.685,154.831z"/>
<path d="M471.246,24.766H40.754C18.283,24.766,0,43.048,0,65.52v59.227c0,4.602,3.731,8.332,8.332,8.332s8.332-3.731,8.332-8.332
	V65.52c0-13.284,10.807-24.09,24.09-24.09h430.492c13.284,0,24.09,10.807,24.09,24.09v284.411h-52.21
	c-4.602,0-8.332,3.731-8.332,8.332c0,4.602,3.731,8.332,8.332,8.332h52.21v15.273c0,13.283-10.807,24.09-24.09,24.09H40.754
	c-13.284,0-24.09-10.807-24.09-24.09v-15.273h398.688c4.602,0,8.332-3.731,8.332-8.332c0-4.602-3.731-8.332-8.332-8.332H16.664
	v-197.41c0-4.602-3.731-8.332-8.332-8.332S0,147.92,0,152.521v229.348c0,22.472,18.283,40.754,40.754,40.754H183.54l-20.494,47.945
	h-40.034c-4.602,0-8.332,3.729-8.332,8.332c0,4.602,3.731,8.332,8.332,8.332h265.975c4.602,0,8.332-3.731,8.332-8.332
	c0-4.603-3.731-8.332-8.332-8.332h-40.034l-20.494-47.945h142.786c22.472,0,40.754-18.282,40.754-40.754V65.52
	C512,43.048,493.717,24.766,471.246,24.766z M330.83,470.569H181.17l14.238-33.31h121.185L330.83,470.569z"/>
<path d="M253.972,376.222c-3.517,0.879-6.116,4.048-6.291,7.67c-0.364,7.534,9.106,11.629,14.33,6.172
	c2.663-2.782,3.078-7.177,0.913-10.385C261.01,376.772,257.341,375.38,253.972,376.222z"/>
</svg>